# xmcd
#
# Track frame offsets: 
#        150
#        15830
#        26245
#        42145
#        52320
#        63485
#        71620
#        90920
#        106600
#        120447
#        132465
#        147655
#        159632
#        171742
#
# Disc length: 2474 seconds
#
# Revision: 1
# Processed by: cddbd v1.5.2PL0 Copyright (c) Steve Scherf et al.
# Submitted via: ExactAudioCopy v1.3
#
DISCID=c409a80e
DTITLE=Johnny Gimble, David Musgrave, David and Larry Stanley, Don Ambro
DTITLE=se, Darrel Holt - Cotton Eyed Joe! Texas Dance Favorites
DYEAR=1999
DGENRE=Country
TTITLE0=Cotton-Eyed Joe (No Calls)
TTITLE1=Texas Schottische
TTITLE2=Faded Love - Maiden's Prayer Medley
TTITLE3=San Antonio Rose
TTITLE4=I'm So Lonesome I Could Cry
TTITLE5=Steel Guitar Rag
TTITLE6=Night Life
TTITLE7=Cotton-Eyed Joe (With Calls)
TTITLE8=Jole' Blon Waltz
TTITLE9=Lone Star Polka
TTITLE10=Today I Started Loving You Again
TTITLE11=Orange Blossom Special
TTITLE12=I'd Be A Legend In My Time
TTITLE13=West Texas Waltz
EXTD=
EXTT0=
EXTT1=
EXTT2=
EXTT3=
EXTT4=
EXTT5=
EXTT6=
EXTT7=
EXTT8=
EXTT9=
EXTT10=
EXTT11=
EXTT12=
EXTT13=
PLAYORDER=
